<svg width="40" height="40" viewBox="0 0 40 40" fill="none" xmlns="http://www.w3.org/2000/svg">
<path d="M20 20C17.7898 20 15.6702 19.122 14.1074 17.5592C12.5446 15.9964 11.6666 13.8768 11.6666 11.6667C11.6666 9.45654 12.5446 7.33692 14.1074 5.77412C15.6702 4.21132 17.7898 3.33334 20 3.33334C22.2101 3.33334 24.3297 4.21132 25.8925 5.77412C27.4553 7.33692 28.3333 9.45654 28.3333 11.6667C28.3333 13.8768 27.4553 15.9964 25.8925 17.5592C24.3297 19.122 22.2101 20 20 20ZM30 28.3333V36.6667H26.6666V28.3333C26.6666 20.915 31.0733 14.525 37.4116 11.64L38.7916 14.6733C36.1695 15.866 33.9461 17.7883 32.3871 20.2105C30.8281 22.6328 29.9994 25.4527 30 28.3333ZM13.3333 28.3333V36.6667H9.99998V28.3333C10.0002 25.453 9.17136 22.6335 7.61237 20.2115C6.05339 17.7895 3.83019 15.8675 1.20831 14.675L2.58831 11.64C5.79279 13.0975 8.50999 15.4466 10.4153 18.4068C12.3207 21.3669 13.3337 24.813 13.3333 28.3333Z" fill="#47AFFF"/>
</svg>
