<svg width="140" height="23" viewBox="0 0 140 23" fill="none" xmlns="http://www.w3.org/2000/svg">
<path d="M0 1.22597V22.6856H4.46393V8.6656H4.64461L10.2777 22.5809H13.3174L18.9504 8.718H19.1311V22.6856H23.5951V1.22597H17.9195L11.9251 15.6442H11.67L5.67557 1.22597H0Z" fill="#00286B"/>
<path d="M34.6778 23C39.6307 23 42.7129 19.6574 42.7129 14.7011C42.7129 9.71344 39.6307 6.38132 34.6778 6.38132C29.725 6.38132 26.6428 9.71344 26.6428 14.7011C26.6428 19.6574 29.725 23 34.6778 23ZM34.6991 19.5421C32.414 19.5421 31.2449 17.4779 31.2449 14.6697C31.2449 11.8615 32.414 9.78679 34.6991 9.78679C36.9417 9.78679 38.1108 11.8615 38.1108 14.6697C38.1108 17.4779 36.9417 19.5421 34.6991 19.5421Z" fill="#00286B"/>
<path d="M45.742 22.6856H50.2059V20.108H50.4079C51.0349 21.4492 52.406 22.9476 55.0419 22.9476C58.7618 22.9476 61.6633 20.0451 61.6633 14.6592C61.6633 9.12665 58.6343 6.38132 55.0525 6.38132C52.321 6.38132 51.0137 7.98451 50.4079 9.2943H50.2697V1.22597H45.742V22.6856ZM50.174 14.6383C50.174 11.7672 51.4069 9.93349 53.607 9.93349C55.8496 9.93349 57.04 11.851 57.04 14.6383C57.04 17.4465 55.8284 19.3954 53.607 19.3954C51.4282 19.3954 50.174 17.5093 50.174 14.6383Z" fill="#00286B"/>
<path d="M72.0606 23C76.4076 23 79.1391 20.4852 79.3517 16.7863H75.079C74.8133 18.5048 73.6655 19.4688 72.1137 19.4688C69.9987 19.4688 68.6276 17.7189 68.6276 14.6383C68.6276 11.5995 70.0093 9.86014 72.1137 9.86014C73.7718 9.86014 74.8346 10.9394 75.079 12.5426H79.3517C79.1604 8.82278 76.3013 6.38132 72.0393 6.38132C67.0865 6.38132 64.0255 9.76583 64.0255 14.7011C64.0255 19.5945 67.0333 23 72.0606 23Z" fill="#00286B"/>
<path d="M86.7783 1.22597H82.2506V22.6856H86.7783V1.22597Z" fill="#00286B"/>
<path d="M90.4052 22.6856H94.9329V6.59089H90.4052V22.6856ZM92.6797 4.51617C94.0295 4.51617 95.1348 3.49977 95.1348 2.25285C95.1348 1.0164 94.0295 0 92.6797 0C91.3405 0 90.2352 1.0164 90.2352 2.25285C90.2352 3.49977 91.3405 4.51617 92.6797 4.51617Z" fill="#00286B"/>
<path d="M103.088 13.3809C103.098 11.3062 104.352 10.0907 106.18 10.0907C107.998 10.0907 109.093 11.2642 109.082 13.2342V22.6856H113.61V12.4378C113.61 8.68656 111.378 6.38132 107.977 6.38132C105.553 6.38132 103.8 7.5549 103.066 9.43052H102.875V6.59089H98.5599V22.6856H103.088V13.3809Z" fill="#00286B"/>
<path d="M117.178 22.6856H121.706V6.59089H117.178V22.6856ZM119.453 4.51617C120.802 4.51617 121.908 3.49977 121.908 2.25285C121.908 1.0164 120.802 0 119.453 0C118.113 0 117.008 1.0164 117.008 2.25285C117.008 3.49977 118.113 4.51617 119.453 4.51617Z" fill="#00286B"/>
<path d="M132.709 23C137.056 23 139.787 20.4852 140 16.7863H135.727C135.462 18.5048 134.314 19.4688 132.762 19.4688C130.647 19.4688 129.276 17.7189 129.276 14.6383C129.276 11.5995 130.658 9.86014 132.762 9.86014C134.42 9.86014 135.483 10.9394 135.727 12.5426H140C139.809 8.82278 136.95 6.38132 132.688 6.38132C127.735 6.38132 124.674 9.76583 124.674 14.7011C124.674 19.5945 127.682 23 132.709 23Z" fill="#00286B"/>
</svg>
